<svg width="64" height="64" viewBox="0 0 128 128" fill="none" xmlns="http://www.w3.org/2000/svg" role="img" aria-labelledby="feedfuseIconTitle64">
  <title id="feedfuseIconTitle64">FeedFuse Icon</title>
  <defs>
    <linearGradient id="feedfuseIcon64OrbitStroke" x1="20" y1="108" x2="108" y2="18" gradientUnits="userSpaceOnUse">
      <stop offset="0" stop-color="#5EA0FF" />
      <stop offset="1" stop-color="#6EE7C8" />
    </linearGradient>
    <linearGradient id="feedfuseIcon64CoreFill" x1="50" y1="78" x2="78" y2="52" gradientUnits="userSpaceOnUse">
      <stop offset="0" stop-color="#FFD06B" />
      <stop offset="1" stop-color="#FFE39A" />
    </linearGradient>
    <linearGradient id="feedfuseIcon64AccentFill" x1="18" y1="34" x2="66" y2="76" gradientUnits="userSpaceOnUse">
      <stop offset="0" stop-color="#FF8C7B" />
      <stop offset="1" stop-color="#FFB39A" />
    </linearGradient>
  </defs>

  <ellipse cx="64" cy="64" rx="42" ry="17" transform="rotate(22 64 64)" stroke="url(#feedfuseIcon64OrbitStroke)" stroke-width="7" stroke-linecap="round" />
  <ellipse cx="64" cy="64" rx="41" ry="16" transform="rotate(-34 64 64)" stroke="url(#feedfuseIcon64OrbitStroke)" stroke-width="7" stroke-linecap="round" />
  <ellipse cx="64" cy="64" rx="37" ry="14" transform="rotate(76 64 64)" stroke="url(#feedfuseIcon64OrbitStroke)" stroke-width="7" stroke-linecap="round" />

  <path d="M16 30C30 38 44 50 56 64" stroke="url(#feedfuseIcon64AccentFill)" stroke-width="5" stroke-linecap="round" />
  <path d="M18 98C32 90 45 79 56 66" stroke="url(#feedfuseIcon64AccentFill)" stroke-width="4.5" stroke-linecap="round" />

  <circle cx="26" cy="35" r="4.2" fill="url(#feedfuseIcon64AccentFill)" />
  <circle cx="36" cy="42" r="3.8" fill="url(#feedfuseIcon64AccentFill)" />
  <circle cx="44" cy="49" r="3.2" fill="url(#feedfuseIcon64AccentFill)" />
  <circle cx="28" cy="93" r="3.6" fill="url(#feedfuseIcon64AccentFill)" />
  <circle cx="38" cy="86" r="3" fill="url(#feedfuseIcon64AccentFill)" />

  <circle cx="64" cy="64" r="14" fill="url(#feedfuseIcon64CoreFill)" />
  <circle cx="59" cy="58" r="4.2" fill="white" fill-opacity="0.65" />

  <path d="M47 45A18 18 0 0 1 65 63" stroke="#6EE7C8" stroke-opacity="0.75" stroke-width="3" stroke-linecap="round" />
  <path d="M43 41A24 24 0 0 1 67 65" stroke="#6EE7C8" stroke-opacity="0.55" stroke-width="2.6" stroke-linecap="round" />
  <circle cx="43" cy="45" r="2.4" fill="#6EE7C8" fill-opacity="0.75" />
</svg>
